<?xml version="1.0" encoding="UTF-8" standalone="no"?>
<!-- Created with Inkscape (http://www.inkscape.org/) -->

<svg
   width="50.000019mm"
   height="50.000015mm"
   viewBox="0 0 50.000019 50.000015"
   version="1.1"
   id="svg1"
   xml:space="preserve"
   xmlns="http://www.w3.org/2000/svg"
   xmlns:svg="http://www.w3.org/2000/svg"><defs
     id="defs1" /><g
     id="layer1"
     transform="translate(-423.59145,-504.3354)"><circle
       style="fill:#ffffff;fill-opacity:1;stroke:none;stroke-width:0.476709;stroke-linecap:round;stroke-miterlimit:100;stroke-dasharray:none;stroke-opacity:1;paint-order:markers fill stroke"
       id="circle12"
       cx="448.59146"
       cy="529.33539"
       r="25" /><path
       style="fill:#567694;fill-opacity:1;stroke:#ffffff;stroke-width:0.319474;stroke-linecap:round;stroke-miterlimit:100;stroke-dasharray:none;stroke-opacity:1;paint-order:markers fill stroke"
       d="m 442.02281,529.82629 -0.38296,1.23898 -0.13418,1.46201 -0.46554,1.28695 -0.23673,0.8439 -0.1537,1.52943 -0.21458,1.62085 -0.12119,1.53929 -0.55815,1.00183 -0.21825,0.77627 -0.15124,0.90685 -0.21423,0.88746 0.15619,0.30464 0.78853,0.0223 0.92189,-0.0834 1.59596,-0.0229 0.9029,-0.0157 1.23381,0.15908 1.41849,0.36244 1.75889,0.50372 1.53057,0.94688 0.85987,0.9975 0.64668,0.89535 0.93344,1.35008 0.0814,1.30832 0.62826,1.32965 1.1271,1.15294 0.6523,0.38375 0.81027,-0.30105 0.91753,-0.9281 0.91081,-1.15017 0.64407,-0.93876 0.33299,-2.90437 0.0828,-2.13786 -0.29555,-2.14411 -0.59464,-2.30933 -0.39663,-1.66181 -0.15729,-1.03833 -0.91604,-2.51807 -0.61258,-1.50819 -0.6739,-2.15036 -0.45125,-2.08193 -0.1917,-2.88218 -0.13495,-0.99477 -0.32911,-1.16445 -0.31893,-2.92127 -0.39098,-2.17343 -0.45793,-2.304 -0.5423,-1.26658 -0.52387,-1.70093 -0.83343,-2.56603 -0.59977,-1.43091 -1.12638,-2.87603 -0.72175,2.19824 -0.43426,0.92989 -0.54646,2.43541 -0.20518,0.85361 -0.2523,1.38913 -0.54478,1.44594 -0.53151,1.89001 -0.53916,0.93435 -0.20111,1.6982 -0.74072,2.26573 -0.1883,1.77545 -0.56661,1.76924 -0.20786,1.10942 -0.34472,1.47076 z"
       id="path13" /><text
       xml:space="preserve"
       style="font-style:normal;font-variant:normal;font-weight:normal;font-stretch:normal;font-size:22.9306px;line-height:1;font-family:'MS UI Gothic';-inkscape-font-specification:'MS UI Gothic';text-align:start;letter-spacing:15.875px;text-anchor:start;fill:#000000;fill-opacity:1;stroke:none;stroke-width:3.03885;stroke-linecap:round;stroke-miterlimit:100;stroke-opacity:1;paint-order:markers fill stroke"
       x="426.27179"
       y="536.92651"
       id="text29"><tspan
         style="font-style:normal;font-variant:normal;font-weight:bold;font-stretch:normal;font-size:22.9306px;font-family:Bierstadt;-inkscape-font-specification:'Bierstadt Bold';text-align:start;letter-spacing:15.875px;text-anchor:start;fill:#000000;fill-opacity:1;stroke:none;stroke-width:3.03885;stroke-opacity:1"
         x="426.27179"
         y="536.92651"
         id="tspan29">EK</tspan></text><path
       style="fill:#f9f9f9;stroke-width:0.134729;stroke-miterlimit:100;paint-order:markers fill stroke"
       d="m 445.14778,529.48657 v -6.5353 h 0.87456 1.36525 l 0.031,5.31735 0.031,5.31734 2.70321,0.0319 2.21256,0.0319 v 1.186 1.18601 h -3.60871 -3.60874 z"
       id="path29" /></g></svg>
